<svg version="1.1" xmlns="http://www.w3.org/2000/svg" xmlns:xlink="http://www.w3.org/1999/xlink">

  <defs>
    <style>
      g {
        display: none;
      }
      g:target,
      g:target g {
        display: inline;
      }
      .white {
        color: #ffffff;
      }
      .gray {
        color: #777777;
      }
    </style>

    <symbol id="button-next" viewBox="0 0 41.125 41.125">
      <title>Button-Next</title>
      <circle fill="#FFF" stroke="#010202" stroke-miterlimit="10" cx="20.563" cy="20.625" r="20"/>
      <path fill="currentColor" d="M22.91 15.371l5.367 4.677H10.413V21.2h17.864l-5.367 4.679.758.873 7.043-6.128-7.043-6.126z"/>
    </symbol>
    <symbol id="hand-heart" viewBox="-24.955 882.045 50 50">
      <title>Hand-Heart</title>
      <path fill="currentColor" d="M-1.756 906.288c1.106 1.141 2.765.868 3.607 0l8.397-8.679c2.561-2.646 3.097-7.666-.511-10.745-3.267-2.79-7.58-1.515-9.69.664-2.11-2.179-6.423-3.454-9.682-.664-3.607 3.079-3.071 8.1-.511 10.745l8.39 8.679zm-5.301-16.293c1.2-1.021 3.071-.766 4.194.4l2.91 3.003 2.901-3.012c1.123-1.166 3.003-1.421 4.194-.4 1.608 1.37 1.335 3.607.23 4.756l-7.326 7.582-7.325-7.582c-1.113-1.138-1.377-3.376.222-4.747zM22.5 911.81c-2.646-2.247-5.896-1.37-7.521-.153l-5.139 3.871h-.281c-.017-3.233-2.595-5.769-5.887-5.769H-8.58c-2.417 0-4.79.8-6.678 2.237l-2.408 1.855h-5.428c-.749 0-1.361.612-1.361 1.361v1.361c0 .748.612 1.36 1.361 1.36h6.806l3.514-2.68a6.914 6.914 0 0 1 4.203-1.403H3.68c2.374 0 2.476 3.42-.093 3.42H-1.5c-.647 0-1.174.527-1.174 1.175v.007c0 .647.527 1.176 1.174 1.176H9.942c.826 0 1.634-.272 2.289-.766l5.215-3.923c.706-.527 1.744-.569 2.416 0 .859.723.792 1.965-.077 2.611l-8.559 6.424a3.833 3.833 0 0 1-2.289.766h-32.032c-.749 0-1.361.612-1.361 1.361v1.361c0 .748.612 1.362 1.361 1.362H8.964a7.801 7.801 0 0 0 4.696-1.575l8.576-6.456a5.744 5.744 0 0 0 2.306-4.426c.06-1.742-.689-3.409-2.042-4.557z"/>
    </symbol>

  </defs>
  <!-- <g id="language-passive"> <use class="black" xlink:href="#language"/> </g> -->
</svg>
